<?xml version="1.0" encoding="UTF-8"?>
<!DOCTYPE svg PUBLIC "-//W3C//DTD SVG 1.1//EN" "http://www.w3.org/Graphics/SVG/1.1/DTD/svg11.dtd">
<!-- Creator: CorelDRAW 2020 (64-Bit Evaluation Version) -->
<svg xmlns="http://www.w3.org/2000/svg" xml:space="preserve" width="270.933mm" height="203.2mm" version="1.1" style="shape-rendering:geometricPrecision; text-rendering:geometricPrecision; image-rendering:optimizeQuality; fill-rule:evenodd; clip-rule:evenodd"
viewBox="0 0 27093.32 20320"
 xmlns:xlink="http://www.w3.org/1999/xlink"
 xmlns:xodm="http://www.corel.com/coreldraw/odm/2003">
 <defs>
  <style type="text/css">
   <![CDATA[
    .fil0 {fill:#FFFFFF}
   ]]>
  </style>
 </defs>
 <g id="Layer_x0020_1">
  <metadata id="CorelCorpID_0Corel-Layer"/>
  <g id="_2079454396208">
   <path class="fil0" d="M11934.41 10634.54c205.46,-365.01 779.51,-768.85 1403.47,-755.12 541.04,1117.67 1720.89,1293.53 1870.51,1387.96 -741.64,36.11 -1610.18,-18.12 -2310.94,5 -111.86,3.69 -142.06,-17.9 -139.2,200.77 0.94,71.44 1.17,141.66 1.02,213.11 -1.07,537.35 -120.43,442.92 511.65,442.83 483.69,-0.07 1172,-17.17 1612.6,5.97 -14.67,109.58 -25,82.02 -58.74,128.74 -34.17,47.32 -40.56,66.02 -72.41,111.27 -403.67,573.49 -1235.73,794.78 -1907.31,580.91 -688.15,-219.15 -1277.92,-870.13 -1121.01,-1804.49l507.75 -5.29 -297.39 -511.66zm-2089.68 -3619.15c353.32,-77.61 1393.56,-29.52 1385.23,754.92 -7.65,720.71 -701.23,794.35 -1404.17,771.9 -10.77,-257.72 -41.19,-1372.27 18.94,-1526.82zm5939.73 3217.93c-172.39,-187 -243.93,-402.33 -542.89,-649.86 -217.93,-180.44 -420.81,-323.98 -731.21,-459.98 -299.83,-131.36 -362.59,-65.17 -399.48,-210.14 -118.27,-464.71 137.14,-1031.66 398.89,-1332.71 335.95,-386.39 1051.66,-676.64 1748.83,-413.75 545.58,205.74 515.5,444.73 740.86,457.19 327.73,18.12 842.95,12.95 1172.41,-5.61 -84.55,-435.28 -724.5,-1036.18 -1151.33,-1269.35 -1682.27,-919.01 -3774.47,155.89 -3981.61,2006.11 -19.98,178.38 8.49,415.51 -20.36,564.06 -351.24,43.42 -685.69,141.53 -951.59,291.44l-297.38 180.29c-45.01,29.96 -32.26,20.19 -76.57,55.22l-327.11 273.68c-68.79,-53.45 -288.16,-394.38 -318.28,-492.9 1563.57,-451.66 1709.67,-2843.05 -366.41,-3075.95l-1871.89 -9.14c-35.83,419.53 -26.26,4924.49 14.34,5018.84 141.17,53.32 770.46,20.47 984.44,13.71l7.19 -2208.29c222.34,327.94 446.53,753.81 661.18,1122.85 543.56,934.49 184.12,367.33 181.05,1359.22 -7.97,2572.05 3670.33,3581.42 5100.29,1244.85 138.14,-225.72 474.75,-1096.31 318.08,-1419.79 610.82,-135.7 887.95,-237.72 1307.23,-554.21 272.75,-205.89 715.32,-695.4 798.84,-1037.74l-1233.36 -0.67c-89.11,38.42 -150.12,139 -239.69,203.95 -83.54,60.58 -154.52,110.04 -256.71,166.61 -174.96,96.84 -422.78,183.92 -667.76,182.07z"/>
   <path class="fil0" d="M12224.03 4300.99c2038.92,-206.88 4397.14,257.32 5990.87,932.92 1499.38,635.61 3121.92,1826.94 3552.23,3432.85 277.35,1035.05 24.32,2041.6 -458.41,2775.88 -448.1,681.6 -1072.83,1290.05 -1775.37,1716.79 -708.31,430.25 -1486.66,832.38 -2395.33,1093.95 -2964.16,853.27 -6181.68,781 -8935.01,-384.07 -1520.66,-643.47 -3112.07,-1810.81 -3568.5,-3415.09 -283.85,-997.68 -24.87,-2114.75 448.81,-2802.35 1019.83,-1480.41 2424.12,-2243.97 4170.65,-2811.69 972.28,-316.04 1880.23,-428.61 2970.06,-539.19zm-8460.52 5559.64c396.02,2973.9 3633.82,4592.49 6315.3,5175.97 2182.35,474.87 4703.54,434.01 6844.56,-147.29 1921.76,-521.76 3597.06,-1378.34 4789.03,-2856.82 1210.66,-1501.65 1233.55,-3345.7 102.73,-4948.9 -332.2,-470.98 -973.19,-1090.63 -1460.44,-1422.04 -387.6,-263.63 -725.23,-475.34 -1189.23,-716.67 -3475.21,-1807.47 -9043.61,-1771.53 -12424.04,263.51 -829.81,499.55 -1579.76,1075.48 -2073.52,1764.85 -285.75,398.96 -487.69,692.76 -683.79,1219.07 -169.28,454.31 -293.44,1121.29 -220.6,1668.32z"/>
  </g>
 </g>
</svg>
